<?xml version="1.0" encoding="UTF-8" standalone="no"?>
<svg width="188px" height="40px" viewBox="0 0 188 40" version="1.1" xmlns="http://www.w3.org/2000/svg" xmlns:xlink="http://www.w3.org/1999/xlink" xmlns:sketch="http://www.bohemiancoding.com/sketch/ns">
    <!-- Generator: sketchtool 3.4 (375) - http://www.bohemiancoding.com/sketch -->
    <title>Ournodes_Logo</title>
    <desc>Created with sketchtool.</desc>
    <defs>
        <linearGradient x1="0%" y1="100%" x2="100%" y2="0%" id="linearGradient-1">
            <stop stop-color="#FF4678" offset="0%"></stop>
            <stop stop-color="#FF42BA" offset="100%"></stop>
        </linearGradient>
    </defs>
    <g id="05_Application" stroke="none" stroke-width="1" fill="none" fill-rule="evenodd" sketch:type="MSPage">
        <g id="Production" sketch:type="MSArtboardGroup" transform="translate(-20.000000, -20.000000)">
            <g id="Menu" sketch:type="MSLayerGroup">
                <g id="Ournodes_Logo" transform="translate(20.000000, 20.000000)" sketch:type="MSShapeGroup">
                    <g id="Text" transform="translate(56.000000, 7.350000)" fill="#FFFFFF">
                        <path d="M16.7949268,6.86429268 C15.3998049,5.42039024 13.6866341,4.69746341 11.6583415,4.69746341 C9.62809756,4.69746341 7.91590244,5.42039024 6.5217561,6.86429268 C5.12663415,8.30819512 4.42907317,10.0594146 4.42907317,12.1179512 C4.42907317,14.1764878 5.12663415,15.9277073 6.5217561,17.3716098 C7.91590244,18.8155122 9.62809756,19.5374634 11.6583415,19.5374634 C13.6866341,19.5374634 15.3998049,18.8155122 16.7949268,17.3716098 C18.1900488,15.9277073 18.8876098,14.1764878 18.8876098,12.1179512 C18.8876098,10.0594146 18.1900488,8.30819512 16.7949268,6.86429268 M19.3266341,19.6691707 C17.2583415,21.6877073 14.7022439,22.6974634 11.6583415,22.6974634 C8.61443902,22.6974634 6.05834146,21.6877073 3.99004878,19.6691707 C1.92078049,17.6496585 0.887609756,15.1325854 0.887609756,12.1179512 C0.887609756,9.10331707 1.92078049,6.5862439 3.99004878,4.56673171 C6.05834146,2.54721951 8.61443902,1.53746341 11.6583415,1.53746341 C14.7022439,1.53746341 17.2583415,2.54721951 19.3266341,4.56673171 C21.3939512,6.5862439 22.4290732,9.10331707 22.4290732,12.1179512 C22.4290732,15.1325854 21.3939512,17.6496585 19.3266341,19.6691707" id="Fill-10"></path>
                        <path d="M35.1605854,15.3522927 L35.1605854,6.92204878 L38.4386341,6.92204878 L38.4386341,22.4927805 L35.1605854,22.4927805 L35.1605854,19.6537561 C34.6337561,20.6108293 33.9069268,21.3620488 32.9800976,21.9083902 C32.0532683,22.4537561 31.0532683,22.7279024 29.9800976,22.7279024 C28.224,22.7279024 26.8044878,22.1913171 25.721561,21.1171707 C24.6386341,20.0449756 24.0971707,18.4937561 24.0971707,16.4644878 L24.0971707,6.92204878 L27.3752195,6.92204878 L27.3752195,15.4683902 C27.3752195,18.3376585 28.5654634,19.7708293 30.9459512,19.7708293 C32.0776585,19.7708293 33.0630244,19.3961951 33.9020488,18.6449756 C34.7410732,17.8927805 35.1605854,16.7952195 35.1605854,15.3522927" id="Fill-12"></path>
                        <path d="M49.296878,9.996 C47.6773659,9.996 46.4578537,10.5228293 45.6383415,11.5764878 C44.8188293,12.6301463 44.4090732,14.0447805 44.4090732,15.8203902 L44.4090732,22.493561 L41.1310244,22.493561 L41.1310244,6.92282927 L44.4090732,6.92282927 L44.4090732,10.0545366 C44.9359024,9.07892683 45.6529756,8.27892683 46.5602927,7.65453659 C47.4676098,7.03014634 48.4285854,6.70819512 49.4432195,6.68770732 L49.4724878,9.996 L49.296878,9.996 Z" id="Fill-14"></path>
                        <path d="M54.5650732,14.0641951 L54.5650732,22.4934634 L51.2870244,22.4934634 L51.2870244,6.92273171 L54.5650732,6.92273171 L54.5650732,9.7617561 C55.0919024,8.80565854 55.8187317,8.05443902 56.745561,7.50809756 C57.6723902,6.9617561 58.6723902,6.68760976 59.745561,6.68760976 C61.5016585,6.68760976 62.9211707,7.22517073 64.0040976,8.29834146 C65.0870244,9.3715122 65.6284878,10.9227317 65.6284878,12.952 L65.6284878,22.4934634 L62.350439,22.4934634 L62.350439,13.947122 C62.350439,11.0778537 61.1601951,9.64468293 58.7797073,9.64468293 C57.648,9.64468293 56.6616585,10.0202927 55.8236098,10.7715122 C54.9845854,11.5237073 54.5650732,12.6212683 54.5650732,14.0641951" id="Fill-16"></path>
                        <path d="M72.3747317,18.3810732 C73.301561,19.3283902 74.4771707,19.8005854 75.901561,19.8005854 C77.3259512,19.8005854 78.501561,19.3283902 79.4283902,18.3810732 C80.3552195,17.4347317 80.8186341,16.2103415 80.8186341,14.7079024 C80.8186341,13.2054634 80.3552195,11.9810732 79.4283902,11.0347317 C78.501561,10.0883902 77.3259512,9.61521951 75.901561,9.61521951 C74.4771707,9.61521951 73.301561,10.0883902 72.3747317,11.0347317 C71.4479024,11.9810732 70.9844878,13.2054634 70.9844878,14.7079024 C70.9844878,16.2103415 71.4479024,17.4347317 72.3747317,18.3810732 M81.7552195,20.4005854 C80.1942439,21.9518049 78.2430244,22.7274146 75.901561,22.7274146 C73.5600976,22.7274146 71.608878,21.9518049 70.0479024,20.4005854 C68.4869268,18.8493659 67.706439,16.9518049 67.706439,14.7079024 C67.706439,12.4649756 68.4869268,10.566439 70.0479024,9.01521951 C71.608878,7.46497561 73.5600976,6.68839024 75.901561,6.68839024 C78.2430244,6.68839024 80.1942439,7.46497561 81.7552195,9.01521951 C83.3161951,10.566439 84.0966829,12.4649756 84.0966829,14.7079024 C84.0966829,16.9518049 83.3161951,18.8493659 81.7552195,20.4005854" id="Fill-18"></path>
                        <path d="M88.6327805,14.7816585 C88.6327805,16.2733659 89.1108293,17.488 90.0669268,18.4245854 C91.0230244,19.3611707 92.1449756,19.830439 93.4327805,19.830439 C94.7205854,19.830439 95.8132683,19.3562927 96.7108293,18.4109268 C97.6083902,17.4645854 98.0571707,16.2499512 98.0571707,14.7660488 C98.0571707,13.2840976 97.6083902,12.0440976 96.7108293,11.0499512 C95.8132683,10.0538537 94.7098537,9.55726829 93.4035122,9.55726829 C92.0961951,9.55726829 90.9742439,10.0538537 90.0376585,11.0499512 C89.1010732,12.0440976 88.6327805,13.2889756 88.6327805,14.7816585 M87.5498537,20.5026341 C86.086439,19.0206829 85.3547317,17.0694634 85.3547317,14.6489756 C85.3547317,12.230439 86.1059512,10.2987317 87.6083902,8.85482927 C89.1108293,7.40995122 90.9010732,6.688 92.979122,6.688 C95.0571707,6.688 96.7303415,7.56604878 97.9986341,9.32214634 L97.9986341,0.776780488 L101.276683,0.776780488 L101.276683,22.492878 L97.9986341,22.492878 L97.9986341,20.1523902 C96.788878,21.8694634 95.0230244,22.728 92.7010732,22.728 C90.7303415,22.728 89.0132683,21.9865366 87.5498537,20.5026341" id="Fill-20"></path>
                        <path d="M106.25239,13.5669268 L115.17922,13.5669268 C115.17922,12.2596098 114.769463,11.2547317 113.950927,10.5513171 C113.131415,9.84887805 112.121659,9.49863415 110.920683,9.49863415 C109.720683,9.49863415 108.641659,9.8644878 107.687512,10.5961951 C106.730439,11.3279024 106.25239,12.3181463 106.25239,13.5669268 L106.25239,13.5669268 Z M118.457268,16.1425366 L106.25239,16.1425366 C106.330439,17.2742439 106.847512,18.186439 107.80361,18.8781463 C108.759707,19.5718049 109.851415,19.9181463 111.080683,19.9181463 C113.031902,19.9181463 114.51678,19.3035122 115.530439,18.0742439 L117.40361,20.1230244 C115.724585,21.8596098 113.541171,22.7279024 110.848488,22.7279024 C108.663122,22.7279024 106.80361,22.0010732 105.271902,20.546439 C103.740195,19.0937561 102.974341,17.1425366 102.974341,14.6927805 C102.974341,12.2449756 103.753854,10.2986341 105.315805,8.85473171 C106.87678,7.40985366 108.715805,6.68790244 110.832878,6.68790244 C112.949951,6.68790244 114.748976,7.32692683 116.232878,8.60595122 C117.715805,9.884 118.457268,11.6449756 118.457268,13.888878 L118.457268,16.1425366 Z" id="Fill-22"></path>
                        <path d="M131.686341,17.8399024 C131.686341,19.3228293 131.149756,20.5081951 130.077561,21.396 C129.003415,22.2838049 127.627805,22.7277073 125.949756,22.7277073 C124.818049,22.7277073 123.642439,22.5228293 122.422927,22.1130732 C121.203415,21.7033171 120.125366,21.1277073 119.18878,20.3852683 L120.770244,17.8399024 C122.583902,19.2057561 124.34,19.8886829 126.037561,19.8886829 C126.779024,19.8886829 127.36439,19.7179512 127.793659,19.3764878 C128.222927,19.0350244 128.437561,18.5999024 128.437561,18.0740488 C128.437561,17.293561 127.403415,16.591122 125.335122,15.9667317 C125.179024,15.9081951 125.061951,15.8681951 124.983902,15.8496585 C121.744878,14.9716098 120.125366,13.5081951 120.125366,11.4594146 C120.125366,10.0145366 120.686341,8.85941463 121.808293,7.99014634 C122.930244,7.12282927 124.38878,6.68770732 126.183902,6.68770732 C127.979024,6.68770732 129.676585,7.21453659 131.276585,8.26819512 L130.047317,10.698439 C128.779024,9.85941463 127.403415,9.43990244 125.920488,9.43990244 C125.14,9.43990244 124.505854,9.58136585 124.019024,9.86429268 C123.530244,10.1472195 123.287317,10.5716098 123.287317,11.1374634 C123.287317,11.6447805 123.539024,12.0145366 124.047317,12.2496585 C124.398537,12.4252683 124.89122,12.591122 125.526341,12.7462439 C126.159512,12.9033171 126.720488,13.0594146 127.208293,13.2155122 C127.696098,13.3716098 128.170244,13.5472195 128.627805,13.7423415 C129.086341,13.9374634 129.579024,14.2096585 130.105854,14.5618537 C131.159512,15.2633171 131.686341,16.3569756 131.686341,17.8399024" id="Fill-24"></path>
                    </g>
                    <path d="M26.8095238,29.6752381 L33.4761905,25.8266667 L13.4761905,14.28 L16.8095238,12.3552381 L13.4761905,10.4304762 L6.80952381,14.28 L26.8095238,25.8266667 L23.4761905,27.7514286 L26.8095238,29.6752381 Z M30.1428571,0.599047619 L23.4761905,4.44761905 L26.8095238,6.37238095 L30.1428571,4.44761905 L36.8095238,8.29714286 L36.8095238,31.3904762 L30.1428571,35.24 L13.4761905,25.6171429 L16.8095238,23.692381 L13.4761905,21.7685714 L6.80952381,25.6171429 L30.1428571,39.0885714 L40.1428571,33.3152381 L40.1428571,6.37238095 L30.1428571,0.599047619 Z M10.1428571,35.4485714 L3.47619048,31.6 L3.47619048,8.50571429 L10.1428571,4.65714286 L26.8095238,14.28 L23.4761905,16.2038095 L26.8095238,18.1285714 L33.4761905,14.28 L10.1428571,0.807619048 L0.142857143,6.58190476 L0.142857143,33.5247619 L10.1428571,39.2980952 L16.8095238,35.4485714 L13.4761905,33.5247619 L10.1428571,35.4485714 Z" id="Clip-8" fill="url(#linearGradient-1)"></path>
                </g>
            </g>
        </g>
    </g>
</svg>